<svg
  class="toggle-chip__icon-left"
  width="20"
  height="20"
  viewBox="0 0 20 20"
  fill="none"
  xmlns="http://www.w3.org/2000/svg"
>
  <path
    d="M10.651 3.31c-.723 0-1.304.61-1.304 1.367 0 .76.581 1.369 1.304 1.369.724 0 1.305-.609 1.305-1.369 0-.757-.581-1.367-1.305-1.367zm-.199 3.137h-.212.212c.015 0 0 0 0 0zm-.212 0H9.9c-.44 0-.923.12-1.276.326-.779.446-1.305.862-1.633 1.428-.381.669-.424 1.427-.424 2.481 0 .298.227.537.511.552.282 0 .509-.238.524-.535v-.017c0-1.01.056-1.544.269-1.932.172-.297.484-.579 1.064-.937l-.467 2.365-.044.194c-.056.296-.013.535.143.787l.893 1.442.256.416 2.042 3.3a.714.714 0 0 0 1.008.239.793.793 0 0 0 .225-1.057l-.014-.015-2.737-4.444.257-1.085.183-.803.383-1.664c.099-.535-.326-1.041-.823-1.041zm1.064 1.681l-.326 1.455c.012.015.028.028.043.045.538.55 1.234.756 2.211.995.269.076.552-.103.625-.387a.548.548 0 0 0-.371-.653h-.012c-.938-.237-1.418-.415-1.73-.73-.17-.146-.298-.384-.44-.725zm-3.092 3.254l-.454 2.275-1.446 1.755c-.27.311-.24.8.058 1.083a.712.712 0 0 0 1.033-.059l.014-.016 1.576-1.902a.83.83 0 0 0 .169-.358l.185-.948-1.135-1.83z"
    fill="#717171"
  ></path>
</svg>
